<svg id="Layer_1" data-name="Layer 1" xmlns="http://www.w3.org/2000/svg" viewBox="0 0 184.31 26.97"><defs><style>.cls-1{fill:#1d2b58;}.cls-2{fill:#627c8b;}.cls-3{fill:#abb3ba;}.cls-4{fill:#345839;}.cls-5{fill:#2d578d;}.cls-6{fill:#586b30;}.cls-7{fill:#c2ae48;}.cls-8{fill:#f0ac38;}.cls-9{fill:#ba6e3a;}.cls-10{fill:#675a4f;}.cls-11{fill:#ac9e7b;}</style></defs><title>INTL_FCStone-Logo-web</title><path class="cls-1" d="M1.58,2.61V.3h8V2.61L7.47,3V16.79l2.06.4V19.5h-8V17.19l2.06-.4V3Z" transform="translate(-1.58 -0.02)"/><path class="cls-1" d="M32,.3V2.61L30,3V19.5H26.15L18.39,6.57h-.08V16.79l2.06.4V19.5h-8V17.19l2-.4V3l-2-.4V.3h5.89l7.76,12.93.08,0V3l-2.06-.4V.3h8Z" transform="translate(-1.58 -0.02)"/><path class="cls-1" d="M50.49.3V5.41h-3l-.16-2.15H43.84V16.79l2.06.4V19.5h-8V17.19l2.06-.4V3.26H36.46l-.16,2.15H33.37V.3Z" transform="translate(-1.58 -0.02)"/><path class="cls-1" d="M52,19.5V17.19l2-.4V3l-2-.4V.3h8V2.61L57.93,3V16.54h5.42l.18-2.41h2.94V19.5Z" transform="translate(-1.58 -0.02)"/><path class="cls-1" d="M81,17.19l2-.4V3l-2-.4V.3H96.26V5.56h-3l-.17-2.29H86.87V8.55H93.6v3H86.87v5.27l2.06.4V19.5H81Z" transform="translate(-1.58 -0.02)"/><path class="cls-1" d="M112.87,6.77H110l-.4-2.56a4,4,0,0,0-1.43-.9,5.75,5.75,0,0,0-2-.33,4.52,4.52,0,0,0-3.86,1.82,7.75,7.75,0,0,0-1.35,4.75v.67A7.85,7.85,0,0,0,102.28,15a4.43,4.43,0,0,0,3.8,1.83,6.21,6.21,0,0,0,2.08-.33,3.48,3.48,0,0,0,1.46-.9L110,13h2.86v3.8a8.27,8.27,0,0,1-3,2.14,9.83,9.83,0,0,1-4,.8,8.22,8.22,0,0,1-6.33-2.68,9.74,9.74,0,0,1-2.46-6.87V9.58a9.8,9.8,0,0,1,2.45-6.87A8.19,8.19,0,0,1,105.88,0a9.68,9.68,0,0,1,4,.81,8.66,8.66,0,0,1,3,2.14Z" transform="translate(-1.58 -0.02)"/><path class="cls-1" d="M128.73,6h-2l-.49-2.74a4.77,4.77,0,0,0-1.58-.83,7.31,7.31,0,0,0-2.3-.33,5,5,0,0,0-3.18.88,2.78,2.78,0,0,0-1.11,2.29,2.52,2.52,0,0,0,1.13,2.09,10.65,10.65,0,0,0,3.65,1.47A10.29,10.29,0,0,1,127.5,11a4.75,4.75,0,0,1,1.58,3.63,4.43,4.43,0,0,1-1.89,3.73,8.07,8.07,0,0,1-5,1.41,10.06,10.06,0,0,1-3.94-.73,8,8,0,0,1-2.8-1.9V13.57h2l.5,2.76a6.33,6.33,0,0,0,1.79,1,7,7,0,0,0,2.49.4,5.21,5.21,0,0,0,3.11-.83,2.65,2.65,0,0,0,1.14-2.26,2.86,2.86,0,0,0-1-2.21,8.32,8.32,0,0,0-3.5-1.5,11.68,11.68,0,0,1-4.76-2.13,4.41,4.41,0,0,1-1.72-3.55,4.58,4.58,0,0,1,1.91-3.75,7.83,7.83,0,0,1,5-1.5,9.39,9.39,0,0,1,3.67.69,8.29,8.29,0,0,1,2.66,1.68Z" transform="translate(-1.58 -0.02)"/><path class="cls-1" d="M134.93,1.78V5.23h2.7V7.15h-2.7v8.66a1.94,1.94,0,0,0,.42,1.41,1.5,1.5,0,0,0,1.1.41,5.75,5.75,0,0,0,.77-.06l.72-.12.36,1.78a3.4,3.4,0,0,1-1.08.39,6.92,6.92,0,0,1-1.43.15,3.37,3.37,0,0,1-2.52-1,4.15,4.15,0,0,1-.94-3V7.15h-2.26V5.23h2.26V1.78Z" transform="translate(-1.58 -0.02)"/><path class="cls-1" d="M138.91,12.23A7.86,7.86,0,0,1,140.62,7,6.34,6.34,0,0,1,150,7a7.84,7.84,0,0,1,1.72,5.22v.29A7.82,7.82,0,0,1,150,17.74a6.37,6.37,0,0,1-9.34,0,7.83,7.83,0,0,1-1.72-5.22Zm2.6.29a6.78,6.78,0,0,0,1,3.75,3.44,3.44,0,0,0,5.65,0,6.74,6.74,0,0,0,1-3.75v-.29a6.75,6.75,0,0,0-1-3.73A3.16,3.16,0,0,0,145.28,7a3.13,3.13,0,0,0-2.82,1.49,6.82,6.82,0,0,0-1,3.73Z" transform="translate(-1.58 -0.02)"/><path class="cls-1" d="M152.54,17.83l2.15-.37V7.27l-2.15-.37V5.23H157l.18,2.12A5.14,5.14,0,0,1,159,5.59,4.77,4.77,0,0,1,161.43,5,4.66,4.66,0,0,1,165,6.31a5.93,5.93,0,0,1,1.27,4.18v7l2.15.37V19.5h-6.9V17.83l2.15-.37V10.54a3.86,3.86,0,0,0-.74-2.68,3,3,0,0,0-2.28-.79,3.66,3.66,0,0,0-2,.54,3.94,3.94,0,0,0-1.38,1.48v8.37l2.15.37V19.5h-6.9Z" transform="translate(-1.58 -0.02)"/><path class="cls-1" d="M175.56,19.78a6,6,0,0,1-4.74-2,7.47,7.47,0,0,1-1.76-5.15v-.58A7.32,7.32,0,0,1,170.88,7a5.59,5.59,0,0,1,4.29-2,5.4,5.4,0,0,1,4.36,1.74A6.92,6.92,0,0,1,181,11.35V13h-9.26l0,.07a5.65,5.65,0,0,0,1,3.38,3.32,3.32,0,0,0,2.81,1.33,6.58,6.58,0,0,0,2.31-.38,5.33,5.33,0,0,0,1.72-1l1,1.69a6.2,6.2,0,0,1-2,1.25A8.07,8.07,0,0,1,175.56,19.78ZM175.17,7a2.81,2.81,0,0,0-2.23,1.1,5.19,5.19,0,0,0-1.13,2.76l0,.07h6.58V10.6A4,4,0,0,0,177.59,8,2.91,2.91,0,0,0,175.17,7Z" transform="translate(-1.58 -0.02)"/><path class="cls-1" d="M181.34,3.28a2.38,2.38,0,0,1,.66-1.7,2.22,2.22,0,0,1,3.22,0,2.36,2.36,0,0,1,.66,1.7A2.37,2.37,0,0,1,185.22,5,2.2,2.2,0,0,1,182,5,2.39,2.39,0,0,1,181.34,3.28Zm.39,0a2,2,0,0,0,.55,1.43,1.82,1.82,0,0,0,2.67,0,2,2,0,0,0,.55-1.43,2,2,0,0,0-.55-1.42,1.83,1.83,0,0,0-2.67,0A2,2,0,0,0,181.73,3.28Zm1.42.24V4.61h-.48V1.88h.89a1.25,1.25,0,0,1,.76.21.73.73,0,0,1,.27.61.61.61,0,0,1-.1.35.81.81,0,0,1-.3.25.56.56,0,0,1,.3.25.84.84,0,0,1,.09.41v.18a2.13,2.13,0,0,0,0,.24.45.45,0,0,0,0,.17v.05h-.49a.6.6,0,0,1,0-.2c0-.08,0-.17,0-.26V4a.46.46,0,0,0-.11-.34.48.48,0,0,0-.35-.11Zm0-.42h.49A.63.63,0,0,0,184,3a.33.33,0,0,0,.15-.28A.38.38,0,0,0,184,2.4a.75.75,0,0,0-.44-.09h-.42Z" transform="translate(-1.58 -0.02)"/><rect class="cls-2" x="32.65" y="24.01" width="16.33" height="2.95"/><rect class="cls-3" x="48.98" y="24.01" width="16.33" height="2.95"/><rect class="cls-4" x="65.3" y="24.01" width="16.25" height="2.95"/><rect class="cls-1" y="24.01" width="16.33" height="2.95"/><rect class="cls-5" x="16.33" y="24.01" width="16.32" height="2.95"/><rect class="cls-6" x="81.56" y="24.01" width="16.26" height="2.95"/><rect class="cls-7" x="97.82" y="24.01" width="16.33" height="2.95"/><rect class="cls-8" x="114.15" y="24.01" width="16.33" height="2.95"/><rect class="cls-9" x="130.46" y="24.01" width="16.33" height="2.95"/><rect class="cls-10" x="146.78" y="24.01" width="16.32" height="2.95"/><rect class="cls-11" x="163.11" y="24.01" width="16.33" height="2.95"/><rect class="cls-3" x="70.42" y="8.4" width="2.97" height="2.97"/></svg>